<?xml version="1.0" encoding="utf-8"?>
<!-- Generator: Adobe Illustrator 25.2.0, SVG Export Plug-In . SVG Version: 6.00 Build 0)  -->
<svg version="1.1" id="Слой_1" xmlns="http://www.w3.org/2000/svg" xmlns:xlink="http://www.w3.org/1999/xlink" x="0px" y="0px"
	 viewBox="0 0 42.2 44" style="enable-background:new 0 0 42.2 44;" xml:space="preserve">
<style type="text/css">
	.st0{fill:#FFFFFF;}
	.st1{fill:#0277BD;}
</style>
<path class="st0" d="M42.1,26.8C41.9,26,41.2,25,39.7,25c-0.3,0-0.6,0-1,0.1c-0.7,0.1-1.3,0.2-1.8,0.2c4.1-7,6.8-16.8,4.2-20.2
	C37.4,0.7,32.7,0,30.2,0L30,0c-0.9,0-1.9,0.1-2.9,0.3l-3.6,0.8C23.1,1.1,22.6,1,22,1h0h0l-0.2,0c-1.6,0-3,0.3-4.3,1l-1.3-0.5
	C14.5,0.8,11.9,0,9.4,0C9.2,0,9.1,0,9,0c-2.5,0.1-4.7,1-6.3,2.8c-2,2.1-2.9,5.3-2.7,9.3C0,12.3,2.5,33,9.4,33h0l0.1,0
	c0.9,0,1.8-0.4,2.6-1.1c0.6,0.5,1.4,0.7,2.1,0.8c0.5,0.1,1.4,0.3,2.4,0.3c1.3,0,2.4-0.3,3.4-0.7c0,0.9,0,2,0,3.4l0,0.1l0,0.1
	c0.1,1.4,0.3,2.7,0.7,3.7c1.1,2.9,2.9,4.4,5.1,4.4c0.1,0,0.2,0,0.3,0c1.8-0.1,3.7-1.2,5-2.8c1.4-1.8,1.7-3.6,1.8-5l0-0.1V36V32
	l0.1,0l0.4,0l0,0l0,0c0.1,0,0.3,0,0.4,0c1.5,0,3.4-0.4,4.6-1C39.8,30.5,42.6,29,42.1,26.8z"/>
<path class="st1" d="M31,31c0-0.2,0-0.4,0-0.6c0-0.3,0-0.4,0-0.4s0,0,0,0c0.1-2.7,0.9-3.7,1.7-4.3c-0.1-0.2-0.2-0.3-0.4-0.5
	c-0.3-0.4-0.7-1-1.2-1.7l-0.1-0.2c-0.1-0.2-0.2-0.4-0.4-0.8c-1.2-2.1-3.6-6.6-2-9.4c0.7-1.2,2.1-1.9,4.1-2.1C32,8.7,29,3.1,22,3
	c0,0,0,0,0,0c-6-0.1-8,5.4-8.7,8.7c0.9-0.4,1.9-0.6,2.8-0.6c0,0,0,0,0,0c2.3,0,3.9,1.2,4.3,3.4c0.3,1.6,0.5,2.9,0.5,4.2
	c0,2.7-0.6,4.1-1,5.4l-0.2,0.4c-0.1,0.3-0.3,0.6-0.4,0.9c-0.1,0.3-0.2,0.6-0.3,0.8c0.5,0.1,0.9,0.3,1.1,0.4l0.2,0.1
	c0,0,0.1,0,0.1,0.1c0.8,0.5,1.4,1.3,1.5,2.2c0.1,0.5,0.1,3.9,0,6.9c0.1,1.3,0.3,2.4,0.6,3.1c0.4,1.1,1.4,3.2,3.4,3.1
	c1.4-0.1,2.7-0.9,3.6-2c0.9-1.2,1.3-2.5,1.4-4L31,31L31,31z"/>
<path class="st1" d="M13.1,25.9c-1.6-1.7-2.4-3.9-2.1-6.1c0.3-2,0.1-4,0-5.1c0-0.4,0-0.6,0-0.8c0,0,0,0,0,0c0,0,0,0,0,0
	c0.1-3,1.3-7.8,4.5-10.6C14,2.7,11.4,1.9,9,2C5.3,2.1,1.7,4.7,2,12c0.1,2.7,3.2,19.1,7.4,19c0.6,0,1.2-0.4,1.9-1.2
	c1-1.2,2-2.3,2.7-3.1C13.7,26.5,13.4,26.2,13.1,25.9z M35,11.7c0,0.2,0,0.3,0,0.4c0,0.9-0.1,1.8-0.2,2.7c-0.1,0.6-0.2,1.3-0.2,2
	c0,0.6,0.1,1.3,0.2,2c0.2,1.6,0.5,3.4-0.8,5.4c0.2,0.3,0.4,0.6,0.6,0.8c4.6-7.5,6.5-16.4,4.7-18.6C36.7,2.9,33,2,30,2
	c-0.9,0-1.8,0.1-2.5,0.3C32.6,4.8,34.9,10,35,11.7z M39,27.1c-2.7,0.5-3.9,0.3-4.6-0.1c-0.1,0.1-0.2,0.1-0.3,0.2
	c-0.4,0.2-1,0.6-1.1,2.8c0.1,0,0.2,0,0.2,0l0.4,0c1.3,0.1,3-0.3,4.1-0.8C40,28.2,41.2,26.6,39,27.1z M20,29.1c0-0.3-0.2-0.5-0.5-0.7
	l-0.1,0C19.1,28.2,18.7,28,18,28h0c-0.1,0-0.3,0-0.4,0c-0.1,0-0.1,0-0.2,0c-0.5,0.4-1.1,0.6-2.8,1c-3,0.8-1.2,1.7-0.1,1.8
	c1.1,0.3,3.7,0.6,5.5-0.8C20.1,29.5,20.1,29.2,20,29.1z"/>
<path class="st1" d="M18.7,15.5c-0.3,0.3-0.8,0.6-1.3,0.5c-0.8-0.1-1.5-1.1-1.4-1.5l0,0c0-0.4,0.8-0.6,1.6-0.4
	c0.3,0,0.5,0.1,0.8,0.2c-0.3-0.7-0.9-1.1-1.8-1.2c-1.6-0.2-3.2,0.6-3.6,1.1c0,0.1,0,0.3,0,0.4c0.1,1.1,0.3,3.3-0.1,5.5
	c-0.2,1.5,0.4,3.2,1.6,4.4c0.8,0.8,1.6,1.3,2.5,1.4c0.1-0.5,0.3-0.9,0.5-1.4c0.1-0.3,0.2-0.5,0.3-0.9l0.2-0.4
	c0.4-1.2,0.9-2.4,0.9-4.7C19,17.7,18.9,16.6,18.7,15.5z M32.9,19c-0.1-0.7-0.2-1.5-0.2-2.3c0-0.7,0.1-1.4,0.2-2.1
	c0.1-0.5,0.1-1,0.1-1.5c-1.3,0.1-2.1,0.5-2.6,1.1c0.2-0.1,0.4-0.1,0.6-0.1c0.9-0.1,1.5,0.1,1.6,0.6c0.1,0.4-0.3,0.7-0.4,0.8
	c-0.3,0.3-0.6,0.4-1,0.5c-0.1,0-0.1,0-0.2,0c-0.4,0-0.7-0.1-0.9-0.3c0.1,2,1.6,4.6,2.3,5.9c0.2,0.3,0.3,0.5,0.4,0.7
	C33.2,21.2,33,20.1,32.9,19z"/>
</svg>
